<svg id="Layer_1" data-name="Layer 1" xmlns="http://www.w3.org/2000/svg" viewBox="0 0 920.35 392.87"><defs><style>.cls-1{fill:#03a74d;}.cls-2{fill:#fff;}.cls-3{fill:#fcfcfc;}</style></defs><rect width="920.35" height="392.87"/><path class="cls-1" d="M250.54,252.21H195.87a15,15,0,0,1,2-2c8.87-5.8,12.53-14.11,12.5-24.54-.07-28.42.06-56.85.11-85.28,0-.45-.1-.91-.19-1.68-1.1.38-2.07.68-3,1-33.81,12.75-64.44,31-92.45,53.68-6,4.85-11.36,10.51-16.88,15.93a5.31,5.31,0,0,0-1.44,3.69c.48,6.94.73,13.95,2,20.77,1.23,6.62,6,11.42,10.61,16.07a9.09,9.09,0,0,1,1.19,2.2,9.21,9.21,0,0,1-2.32.41,260.35,260.35,0,0,0-45.28,0c-1.29.11-2.59.13-4.73.23.92-1.35,1.29-2.29,2-2.82C69,242.81,72.3,233.14,72.32,222c0-26.82.17-53.64.15-80.46q0-25.63-.41-51.28a66.65,66.65,0,0,0-1.19-12.94c-.67-3.15-2.54-6-4.09-9.53C77.71,65.72,89,67,100.72,67.07c-1.15,2.66-2.51,4.71-2.91,6.93-1,5.64-2.19,11.35-2.23,17-.22,30.5-.11,61-.11,91.86a6.2,6.2,0,0,0,1.43-.5c15.56-11.83,32.72-21,50.3-29.34a408.07,408.07,0,0,1,60.31-22.93c2.12-.63,3-1.4,3-3.83-.42-17.74-.66-35.49-1-53.24-.05-2.35-.51-4.68-.75-7-.7-7-4.35-11.91-10.43-15.2A22.9,22.9,0,0,1,196,49.2l.26-.73h52.27l.29.55a18.33,18.33,0,0,1-2.25,1.5c-6.43,2.95-10.3,7.93-11.29,14.87a131.73,131.73,0,0,0-1.46,16.33c-.23,13.22-.13,26.44-.15,39.66a2.59,2.59,0,0,0,.18.73c8.1-1.5,16.15-3.1,24.24-4.43,5.49-.91,11-1.49,16.57-2.12a7.46,7.46,0,0,1,2.45.58c-.64.56-1.2,1.41-2,1.64-11.62,3.66-23.26,7.23-34.9,10.83-6.6,2-6.63,2-6.61,9,.05,23.14,0,46.28.24,69.42.08,7.35.94,14.68,1.38,22,.54,8.85,5.62,15,12.11,20.24C248.31,250.09,249.17,251,250.54,252.21Z" transform="translate(-0.01 -0.17)"/><path class="cls-1" d="M707.45,252.15a13.37,13.37,0,0,1,1.79-2.18c3.7-2.93,7.58-5.65,11.16-8.72,5.34-4.59,8.77-10.61,11.5-17q13.88-32.39,27.51-64.85c9.78-23.32,18.89-46.94,29.29-70,5.41-12,1.3-21-5.77-29.79-2.35-2.92-5.95-4.84-9-7.19-.62-.47-1.29-.86-1.94-1.29l.14-.77a14.2,14.2,0,0,1,2.22-.34c10.3,0,20.6,0,30.9-.09a2.61,2.61,0,0,1,2.85,2q17.5,44.34,35.1,88.65,3.07,7.77,5.88,15.64c.63,1.76,1.41,2.43,3.42,2.42,14-.1,28-.21,41.92.11,5.14.12,10.28,1.24,15.38,2.15a7.56,7.56,0,0,1,5.91,4.68c-20.58-.2-40.75.85-61.15,4.3,1.5,3.85,2.86,7.43,4.28,11,6.33,15.86,12.71,31.71,19,47.59,3.82,9.65,10.47,16.67,19.52,21.56a16.16,16.16,0,0,1,2.32,1.84c-.13.25-.25.5-.38.74-3.15-.24-6.29-.6-9.45-.7-15.67-.53-31.34-1.21-47,.72a7.87,7.87,0,0,1-2.34-.42,10.49,10.49,0,0,1,.53-2.34,34.46,34.46,0,0,1,2.89-5.19c4.5-6.15,4.6-12.8,2.36-19.68q-7.26-22.33-14.65-44.62c-.53-1.6-1.1-3.18-1.76-5.08-1.8.52-3.51.94-5.17,1.5a149.67,149.67,0,0,0-74.83,54.4,103,103,0,0,0-5.78,9.38,8.84,8.84,0,0,0-.18,9.17,15.12,15.12,0,0,1,.83,2.36Zm118.29-90.29-26-68.13-1.27,0q-20.44,49.92-40.87,99.83C777.11,176.31,800.44,167.75,825.74,161.86Z" transform="translate(-0.01 -0.17)"/><path class="cls-1" d="M322.15,174.55c12.84.66,25.47,1.51,38-.74a23.13,23.13,0,0,0,14.59-8.52,22,22,0,0,1,2.38-2.11v3.44c.06,7.74.13,15.47.15,23.21a9.4,9.4,0,0,1-.58,2.26c-.59-.21-1.34-.25-1.72-.65-7.19-7.51-16.56-9.06-26.24-9.35-8.21-.25-16.43.06-24.65.14a20.62,20.62,0,0,0-2.2.26c0,1.37,0,2.67,0,4q.66,20.81,1.35,41.6c.21,6.44,3.72,10.41,9.4,12.89a45.34,45.34,0,0,0,18.25,3.43,194.47,194.47,0,0,0,19.76-.91c6.84-.69,12.38-4.37,17.26-9,3-2.87,6-5.8,8.9-8.74,1.27-1.28,2.5-1.56,4-.16-3.62,7.94-7.2,15.91-10.89,23.83-1,2.08-3,2.32-5.08,2.31-22.49-.05-45-.17-67.47,0-8.49.05-17,.76-25.46,1.08a11.5,11.5,0,0,1-3.06-.75,11.87,11.87,0,0,1,1.79-2.27c4.42-3.49,8.83-7.17,10.65-12.59a44,44,0,0,0,2.57-13.75q0-38.67-.61-77.34a132.46,132.46,0,0,0-1.79-18.3c-1.08-7-4-13-11.06-16a6.65,6.65,0,0,1-1.53-1.3l.22-.71a16.13,16.13,0,0,1,2.59-.14c24.57,2.32,49.08.33,73.59-1.08a75.45,75.45,0,0,1,10.73-.22c5.14.45,7.63,3,8.35,8,.53,3.63.85,7.3,1.16,11a5.75,5.75,0,0,1-.6,2c-.65-.26-1.52-.32-1.92-.79-8-9.61-18.86-12.43-30.73-12.24-8.77.15-17.53.86-26.3,1.24a2.81,2.81,0,0,0-3.07,2.91c-.26,3.1-.67,6.21-.7,9.31-.13,14.35-.15,28.71-.2,43.06C322,173.19,322.08,173.66,322.15,174.55Z" transform="translate(-0.01 -0.17)"/><path class="cls-1" d="M490.41,108.19l1.38,14.62c.34,3.57.76,7.14.94,10.71,0,1-.66,2-1,3a10.84,10.84,0,0,1-2.41-1.89c-9-12.63-20.92-19.59-36.77-19.11-11.21.34-20.27,7.24-22.27,17.44-1.59,8.09,2.05,14.59,7.7,19.66,5.87,5.28,12.41,9.84,18.84,14.46,8.21,5.88,16.87,11.15,24.83,17.33,9.35,7.27,15.71,16.59,16,29,.38,14.92-6.74,25.61-19.18,33-14.7,8.74-30.6,9.59-46.88,6a211.3,211.3,0,0,1-20.34-6,4.43,4.43,0,0,1-2.55-3.11c-.47-7-.6-13.93-.82-20.9a2.52,2.52,0,0,1,.26-1.38c.51-.73,1.08-1.72,1.81-1.9.47-.12,1.46.88,1.86,1.58,4.26,7.36,9.27,14,16.71,18.52,10.38,6.25,21.45,8.79,33.38,5.57,17.71-4.79,24.63-23.75,14.33-38.9-4.74-7-11.43-11.73-18.27-16.3-9.33-6.25-19-12.06-28.1-18.59-7.16-5.12-12.95-11.67-15.12-20.59-3.24-13.31,3.08-27.69,15.52-35.49,11.78-7.39,24.54-8.61,37.9-5.9,2.13.44,4.24,1,6.38,1.34C479.83,111.37,485.07,111.64,490.41,108.19Z" transform="translate(-0.01 -0.17)"/><path class="cls-1" d="M596.38,252.21H555a15.85,15.85,0,0,1,2.08-1.67c5.82-3,8.72-8,9-14.4.39-9.52.87-19,.84-28.57-.08-25.87-.38-51.73-.67-77.6,0-3.38-.57-6.77-.79-10.16-.08-1.37-.52-2-2-2-12.65.3-25.31.41-37.77,3a35.11,35.11,0,0,0-15.29,7.68c-2.73,2.27-2.75,2.25-5.65.59L519.1,106.5c4.39,3.76,9.9,3.84,15.21,3.85,26.16.05,52.32,0,78.48-.31,8.57-.11,17.12-1.14,25.68-1.81a47.17,47.17,0,0,0,5-1c-.77,1.47-1.19,2.26-1.61,3.05-3,5.76-6,11.53-9.12,17.25a12.33,12.33,0,0,1-2.13,2.28,9.42,9.42,0,0,1-1.5-2.6c-1.21-5.75-3.24-8.58-8.43-8.75-11.67-.39-23.37-.13-35.59-.13-.33,6.26-.95,12.53-.95,18.81q0,41.21.27,82.41c0,6,.56,12.06,1.17,18.06.59,5.75,3.82,9.91,8.76,12.82A16.43,16.43,0,0,1,596.38,252.21Z" transform="translate(-0.01 -0.17)"/><path class="cls-1" d="M102.31,67.84c-3.09-11.85-11.82-17-25.51-16C51,53.8,30,78.69,31,103c.17,4.13.31,8.38,1.43,12.3a22.21,22.21,0,0,0,5,8.31c2.34,2.6,5.65,3.93,9.28,2.54s5.26-4.53,5.44-8c.34-6.86-.38-13.52-7.2-17.56-2-1.18-1.27-2.43.27-3.08a8,8,0,0,1,4.1-.47c10.71,1.77,18,11.91,17.3,22.83C65.5,137.64,49,147.9,30,141.82,17.74,137.88,10.35,127.24,9.61,113c-1-19.86,6.63-36.29,20.31-50.1,9.49-9.59,20.41-17.42,33.93-20,12.6-2.4,25.31-2.36,36.75,4.83a27.18,27.18,0,0,1,7.55,7.1C112.17,60.56,109.31,66.51,102.31,67.84Z" transform="translate(-0.01 -0.17)"/><path class="cls-1" d="M652.52,110h41.56c-.41.53-.62,1.1-1,1.28-6.83,3.08-9,9-9.59,15.82-.56,7-1.15,14.12-1.14,21.18,0,25.58.26,51.16.52,76.73,0,4.14.55,8.28.95,12.41.54,5.69,3.5,9.84,8.4,12.68.91.53,1.78,1.15,3.27,2.11H653.64a14,14,0,0,1,2.07-1.91,17.66,17.66,0,0,0,8.92-15.76q.24-33.25.24-66.52c0-9.72-.19-19.45-.52-29.16-.16-4.7-.67-9.4-1.3-14.07-.82-6-3.78-10.59-9.46-13.18a7.32,7.32,0,0,1-1.28-1Z" transform="translate(-0.01 -0.17)"/><path class="cls-2" d="M127.52,360.64h-7.06V288.47H132.3l6.57,51,.42,0c2.14-16.94,4.29-33.89,6.45-51h11.67V360.6H150.6V299.12c-2.73,20.88-5.38,41.13-8,61.28-6.32,1.24-6.71,1.05-7.47-4.59-2.38-17.57-4.68-35.16-7-52.74a3,3,0,0,0-.58-1.64Z" transform="translate(-0.01 -0.17)"/><path class="cls-2" d="M620.07,360.7h-7.36c-4-18-8.1-36-11.67-51.95v51.88h-6.67V288.29c2.21,0,4.36-.13,6.48.08a2.59,2.59,0,0,1,1.71,1.67c3.51,15.92,6.93,31.85,10.37,47.77.2.91.45,1.8.53,2.14V288.51h6.61Z" transform="translate(-0.01 -0.17)"/><path class="cls-2" d="M403.44,288.55c5.22,0,10.13-.34,15,.09,5.54.49,8.83,4.07,9.88,9.42a46.53,46.53,0,0,1,.86,9.28c-.11,14,0,27.92-.74,41.84-.43,8-5.21,11.55-13.28,11.61-3.85,0-7.69,0-11.7,0Zm7.77,8.14v55.73c7.12.93,9.14-.58,10.12-7.38a21.34,21.34,0,0,0,.25-3.09c.06-11.61.16-23.22.1-34.83a30.63,30.63,0,0,0-1-7,4.31,4.31,0,0,0-4.58-3.46Z" transform="translate(-0.01 -0.17)"/><path class="cls-2" d="M290.68,360.81V288c5.81.34,11.6.08,17.14,1.16,6,1.18,7.7,6.65,7.8,11.83.32,15.73.36,31.48,0,47.21-.23,8.79-4.95,12.63-13.74,12.62ZM298.21,297v55.31c6.83,1.56,9.59-.44,10.06-7.16.05-.66.13-1.32.13-2,0-12.66.06-25.31-.07-38C308.26,297.63,306,295.9,298.21,297Z" transform="translate(-0.01 -0.17)"/><path class="cls-2" d="M573.67,324.86c0,6.33.14,12.65-.06,19a44.65,44.65,0,0,1-1.32,9.49c-1.31,5.13-5.46,8.11-10.85,8.32-6,.23-10.52-2.13-12-7.44a59.16,59.16,0,0,1-2-15c0-13.1.16-26.22.82-39.3.4-8.09,5.36-12.45,12.63-12.39,6.13,0,10.33,3.16,11.52,9.18A99.75,99.75,0,0,1,573.7,309c.18,2.63,0,5.28.06,7.93v7.92Zm-7.81.05H566c0-6.23.07-12.46,0-18.68a41.34,41.34,0,0,0-.8-6.73,4.24,4.24,0,0,0-4.55-3.8,4.17,4.17,0,0,0-4.46,3.56,33.9,33.9,0,0,0-.94,6.7q-.15,18.41,0,36.81a33.8,33.8,0,0,0,.69,6.17c.6,3.13,2.32,4.7,4.79,4.7s4.13-1.54,4.76-4.7a18.27,18.27,0,0,0,.42-3.37C565.88,338.69,565.86,331.8,565.86,324.91Z" transform="translate(-0.01 -0.17)"/><path class="cls-2" d="M836.65,345.47c-3.44,0-6.65-.12-9.83.11-.66.05-1.62,1.35-1.77,2.19-.75,4.25-1.29,8.53-1.91,12.86h-7.4c.89-6,1.74-11.76,2.6-17.52,2.39-16.14,4.82-32.26,7.16-48.41.94-6.43.85-6.44,7.25-6.41h3.46c3.48,24.1,6.93,48,10.46,72.5a63.14,63.14,0,0,1-6.67-.09c-.55-.06-1.28-1.21-1.4-1.95C837.88,354.48,837.32,350.18,836.65,345.47Zm-5.3-45.91-4.82,37.78h9.18C834.24,324.65,832.81,312.25,831.35,299.56Z" transform="translate(-0.01 -0.17)"/><path class="cls-2" d="M683.79,360.73h-8.93c-3.67-24-7.34-48-11-72.25H672q3.63,29,7.25,57.88,3.59-28.87,7.19-57.89h7.78C690.7,312.65,687.26,336.6,683.79,360.73Z" transform="translate(-0.01 -0.17)"/><path class="cls-2" d="M888,305.23h-7.48c-.23-1.77-.4-3.52-.7-5.25-.47-2.63-2-4.24-4.76-4.38s-4.42,1.41-5.2,3.91a15.08,15.08,0,0,0,2.28,14c3.19,4.32,6.89,8.26,10.24,12.46,6.48,8.15,7.31,17.41,4.5,27-1.82,6.24-6.88,9-14,8.55-5.87-.39-9.83-4.06-10.94-10.39-.43-2.45-.46-5-.69-7.69h7.59c.25,2,.41,3.91.78,5.82.48,2.55,1.86,4.36,4.67,4.51a5,5,0,0,0,5.51-3.93c1.77-6.65,1.07-12.91-3.63-18.32-2.61-3-5.19-6-7.85-8.94-6.78-7.47-7.94-16.27-5.85-25.69a11.81,11.81,0,0,1,12.12-9.49c6.47.09,10.74,3.39,12.2,9.67C887.4,299.6,887.56,302.25,888,305.23Z" transform="translate(-0.01 -0.17)"/><path class="cls-2" d="M270.8,288.59v8H257v23.26h13v8.25h-13V352.7h13.88v7.88H249.31v-72Z" transform="translate(-0.01 -0.17)"/><path class="cls-2" d="M362.78,360.57V288.44H384v8.14H370.28v23.25h12.79V328H370.28v24.68h13.87v7.89Z" transform="translate(-0.01 -0.17)"/><path class="cls-3" d="M444.12,76.12c2.26,3.49,4.58,7.39,7.25,11,1.17,1.59,3.1,2.62,4.64,3.95a8.64,8.64,0,0,1,1.06,1.39c-.47.34-.92,1-1.41,1-6.66.35-10.94.45-15.1-7.18a73.21,73.21,0,0,0-3.8-6.62c-.68-1-2-1.51-3.51-2.62,0,4.33-.21,7.7.13,11,.1,1,1.78,1.75,2.73,2.63l1.59,1.5c-.64.37-1.27,1.07-1.92,1.08-4.72.1-9.44.1-14.16,0-.61,0-1.2-.57-1.8-.88.5-.54.91-1.43,1.5-1.56,2.18-.48,2.92-1.89,2.92-3.89q0-11.88,0-23.77c0-2-.77-3.43-2.94-3.91-.53-.11-.92-.88-1.38-1.34.51-.29,1-.83,1.52-.83,6.88,0,13.81-.34,20.63.36,7.63.78,11.09,7.45,7.39,13.46C448.26,72.86,446.15,74.19,444.12,76.12Zm-2.62-9.34c0-4.16-1.93-6.4-5.58-6.89-2.12-.28-3,.52-3,2.57,0,3.49-.05,7,.14,10.47a2.53,2.53,0,0,0,1.81,1.63C439,74.76,441.54,71.62,441.5,66.78Z" transform="translate(-0.01 -0.17)"/><path class="cls-2" d="M221.08,296.63v64h-7.5V296.76h-9.17v-8.31h25.88v8.18Z" transform="translate(-0.01 -0.17)"/><path class="cls-2" d="M492.7,360.63h-7.64V296.69h-8.9v-8.27h25.51v8.18h-9Z" transform="translate(-0.01 -0.17)"/><path class="cls-2" d="M52.38,288.42h7.38v64.14H73.39v8.08h-21Z" transform="translate(-0.01 -0.17)"/><path class="cls-2" d="M748.83,352.77h13.85v7.91H741.42V288.54h7.41Z" transform="translate(-0.01 -0.17)"/><path class="cls-3" d="M362.07,56.17c11.41.06,19.22,7.75,19.16,18.9s-8.15,19-19.76,19c-11.15,0-18.92-8-18.82-19.26C342.75,64.18,351.17,56.11,362.07,56.17Zm10.08,19a117.27,117.27,0,0,0-3.55-11.69c-1.2-3-4.05-4.45-7.35-4.33a7.28,7.28,0,0,0-6.87,5.05,31,31,0,0,0-1.92,8.17c-.4,5.41.1,10.75,3.64,15.29,2,2.57,4.59,4,7.86,3.48a7.72,7.72,0,0,0,6.41-6C371.15,82.17,371.45,79.17,372.15,75.12Z" transform="translate(-0.01 -0.17)"/><path class="cls-2" d="M780.73,288.5H788v64.09h13.33v8H780.73Z" transform="translate(-0.01 -0.17)"/><path class="cls-3" d="M681,57.74c-.57.59-1,1.52-1.73,1.69a3.94,3.94,0,0,0-3.29,4q-.35,9.6-.56,19.21c-.06,2.83.09,5.67-.06,8.5,0,.84-.64,2.26-1.15,2.34a4.91,4.91,0,0,1-3.52-.64c-1.3-1-2.11-2.63-3.18-3.95-5.76-7.11-11.53-14.2-17.68-21.77-.13,1.24-.28,1.91-.27,2.58q.16,8.34.4,16.67c.07,2.33,1,3.94,3.55,4.38.66.11,1.17,1,1.75,1.59a6,6,0,0,1-2,.91c-3.5.1-7,.09-10.49,0-.58,0-1.14-.61-1.71-.93.43-.51.8-1.37,1.31-1.46,2.86-.49,3.61-2.49,3.68-4.93.19-6.88.34-13.77.41-20.65,0-2.89-1-5.13-4.16-5.94-.62-.15-1.06-1-1.57-1.52.6-.29,1.19-.6,1.8-.88.16-.07.38,0,.56,0,6.45-.78,11.56.53,15.44,6.7C662,69.29,667,74,671.31,79.12a12.14,12.14,0,0,0,1.08.82c0-1.76,0-3.08,0-4.4-.08-3.78-.22-7.55-.25-11.32,0-2.75-1.08-4.47-4-4.9-.58-.09-1-1-1.57-1.45.6-.29,1.2-.83,1.8-.84,4-.07,7.92,0,11.88,0Z" transform="translate(-0.01 -0.17)"/><path class="cls-2" d="M98.32,360.69H90.8V288.54h7.52Z" transform="translate(-0.01 -0.17)"/><path class="cls-2" d="M520.05,288.47h7.51v72.15h-7.51Z" transform="translate(-0.01 -0.17)"/><path class="cls-2" d="M713.08,288.39h7.28v72.15h-7.28Z" transform="translate(-0.01 -0.17)"/><path class="cls-3" d="M743.76,81.32c-1.17-.57-2.38-.81-2.46-1.25-.7-3.9-3.53-3.87-6.48-3.75-.93,0-1.86,0-3,0,0,3.92-.13,7.66.1,11.37A3.42,3.42,0,0,0,734,90c5.14,1.56,9.73-.39,12.67-5A11.35,11.35,0,0,1,749,83l.85.7c-.66,2.7-1.23,5.43-2.05,8.08a2.61,2.61,0,0,1-1.93,1.44q-13,.19-26,.12c-.64,0-1.26-.71-1.89-1.09.58-.48,1.11-1.26,1.76-1.38a3.46,3.46,0,0,0,3.17-3.7q0-11.6,0-23.2c0-2.45-.67-4.49-3.62-4.84-.38-.05-.69-.67-1-1,.54-.34,1.09-1,1.65-1C725.39,57,731,57,736.53,57h9.66l.39,8.61-.66.65c-.76-.56-1.9-1-2.2-1.72-1.64-4-2.39-4.65-6.68-4.63-6.35,0-5.44-.75-5.47,5.32,0,2.44,0,4.88,0,7.72,2.25,0,4.37.33,6.3-.13,1.17-.27,2-1.77,3.07-2.71.59-.54,1.21-1.05,1.82-1.58.33.66.93,1.31,1,2C743.81,73.88,743.76,77.26,743.76,81.32Z" transform="translate(-0.01 -0.17)"/><path class="cls-2" d="M178.53,288.46h7.14v72.13h-7.14Z" transform="translate(-0.01 -0.17)"/><path class="cls-2" d="M457.31,360.64h-7.17V288.5h7.17Z" transform="translate(-0.01 -0.17)"/><path class="cls-3" d="M573.13,56.92c2.36,0,4.72-.07,7.08.06.64,0,1.25.7,1.88,1.08-.46.47-.87,1.3-1.39,1.37-2.46.32-3.06,2-3.07,4,0,5.57-.15,11.15.12,16.7.3,6.09,3.41,9.35,8.42,9.47,4.7.11,8.37-2.64,8.68-7.48.41-6.37.15-12.8.08-19.2,0-2-1.41-2.9-3.2-3.47-.71-.23-1.26-1-1.88-1.51a6.06,6.06,0,0,1,2-.92c3.39-.1,6.8-.09,10.2,0a2.28,2.28,0,0,1,1.5.83c.14.16-.31,1.22-.61,1.28-4.75.89-4.16,4.78-4.39,8-.36,5-.11,10-.64,15-1.06,9.76-9.17,13.17-17.58,11.74C572.6,92.51,569,88,568.93,80.06c-.06-5.29,0-10.58,0-15.86,0-2.43-.4-4.56-3.44-5-.42,0-.75-.82-1.12-1.25.46-.34.92-.94,1.4-1,2.45-.1,4.91,0,7.37,0Z" transform="translate(-0.01 -0.17)"/><path class="cls-3" d="M288.89,72.92c2.49,0,4.78.3,6.93-.13,1-.21,1.74-1.83,2.63-2.79.44-.48.94-.91,1.42-1.37.39.5,1.1,1,1.12,1.51.1,3.57.05,7.14.05,11.61-1.21-.77-2.39-1.11-2.5-1.66-.6-3-2.62-3.62-5.24-3.52-1.31.05-2.62,0-4.56,0,.18,4.13.16,8,.67,11.91.11.85,2.06,1.45,3.13,2.21.65.46,1.24,1,1.85,1.52-.72.37-1.44,1-2.17,1.06q-7.23.15-14.45,0c-.74,0-1.46-.68-2.18-1,.58-.47,1.11-1.26,1.75-1.36a3.23,3.23,0,0,0,2.93-3.56c0-8.21-.07-16.42-.09-24.63,0-2-1.15-2.79-2.86-3.32-.64-.2-1.1-1-1.65-1.46.61-.29,1.22-.85,1.83-.85,8.49-.06,17,0,25.82,0,.12,2.61.29,5.29.34,8,0,.39-.62,1.15-.87,1.11-.64-.08-1.67-.41-1.77-.83-1.41-5.64-5.79-5.49-10.14-5.2-.7,0-1.87,1-1.9,1.65C288.8,65.37,288.89,69,288.89,72.92Z" transform="translate(-0.01 -0.17)"/><path class="cls-3" d="M505.19,60.26c-5.81-.58-7.13.2-9.35,4.74-.34.71-1.44,1.06-2.19,1.57a6.41,6.41,0,0,1-.67-2.13c.2-2.71.55-5.42.86-8.13,0-.08.11-.15.13-.17,10.36,1.56,20.68,1.16,31.41.15.16,3,.34,6.39.58,10.8-1.34-.88-2.47-1.2-2.78-1.89-2.32-5.16-2.84-5.51-9.15-5,0,.85-.16,1.75-.16,2.64,0,7.46,0,14.92,0,22.38,0,2.89.37,5.32,4.06,5.55.53,0,1,1.17,1.47,1.79l-.55.66c-5.75,0-11.5,0-17.24,0-.46,0-.92-.65-1.38-1,.43-.49.81-1.35,1.3-1.42,2.15-.31,3.63-1.28,3.65-3.56C505.23,78.28,505.19,69.34,505.19,60.26Z" transform="translate(-0.01 -0.17)"/></svg>