<svg id="Layer_1" data-name="Layer 1" xmlns="http://www.w3.org/2000/svg" viewBox="0 0 920.35 392.87"><defs><style>.cls-1{fill:#fff;}.cls-2{fill:#047537;}</style></defs><rect class="cls-1" width="920.35" height="392.87"/><path class="cls-2" d="M251,252.54H196.37a15,15,0,0,1,2-2c8.87-5.8,12.53-14.11,12.5-24.54-.07-28.43.06-56.85.11-85.28,0-.45-.1-.91-.19-1.68-1.1.38-2.07.68-3,1-33.81,12.75-64.44,31-92.45,53.68-6,4.85-11.36,10.51-16.88,15.93A5.3,5.3,0,0,0,97,213.4c.48,6.95.74,14,2,20.78,1.23,6.62,6,11.42,10.61,16.07a8.87,8.87,0,0,1,1.19,2.19,8.74,8.74,0,0,1-2.32.42,260.35,260.35,0,0,0-45.28,0c-1.29.1-2.59.13-4.73.23.92-1.35,1.29-2.29,2-2.82,9.11-7.12,12.38-16.78,12.4-27.92.05-26.82.17-53.64.15-80.46q0-25.64-.4-51.28a66.66,66.66,0,0,0-1.2-12.94c-.67-3.15-2.54-6-4.09-9.53,10.93-2.07,22.22-.79,34-.72-1.16,2.66-2.52,4.7-2.92,6.92-1,5.65-2.19,11.36-2.23,17.06-.22,30.5-.1,61-.1,91.86a6.81,6.81,0,0,0,1.42-.5c15.57-11.83,32.72-21,50.3-29.34A408.07,408.07,0,0,1,208,130.47c2.13-.63,3-1.4,3-3.83-.42-17.74-.66-35.49-1-53.24-.05-2.35-.51-4.68-.75-7-.7-7-4.35-11.91-10.43-15.21a21.31,21.31,0,0,1-2.3-1.63l.27-.73H249l.29.54a17.34,17.34,0,0,1-2.25,1.51c-6.43,2.95-10.3,7.93-11.29,14.87a133.68,133.68,0,0,0-1.46,16.33c-.23,13.22-.12,26.44-.14,39.66a2.54,2.54,0,0,0,.17.72c8.1-1.49,16.15-3.09,24.24-4.43,5.49-.9,11-1.49,16.57-2.12a7.75,7.75,0,0,1,2.45.59c-.64.56-1.2,1.41-2,1.64-11.62,3.66-23.26,7.23-34.9,10.83-6.6,2-6.63,2-6.61,9,.05,23.14,0,46.28.24,69.42.08,7.35.94,14.68,1.38,22,.54,8.86,5.62,15,12.11,20.25C248.81,250.42,249.67,251.29,251,252.54Z" transform="translate(-0.52 -0.5)"/><path class="cls-2" d="M708,252.48a12.9,12.9,0,0,1,1.8-2.18c3.69-2.94,7.58-5.65,11.15-8.72,5.34-4.6,8.77-10.61,11.5-17q13.88-32.39,27.52-64.85c9.77-23.32,18.88-46.94,29.28-70,5.42-12,1.31-21-5.76-29.78-2.36-2.92-6-4.84-9-7.19-.61-.48-1.29-.86-1.94-1.29l.14-.77a14.2,14.2,0,0,1,2.22-.34c10.3,0,20.6,0,30.9-.09a2.61,2.61,0,0,1,2.85,2q17.5,44.34,35.1,88.65,3.07,7.77,5.88,15.63c.63,1.77,1.41,2.44,3.42,2.42,14-.09,28-.2,41.92.12,5.14.11,10.28,1.24,15.38,2.14a7.6,7.6,0,0,1,5.92,4.69c-20.59-.2-40.76.85-61.16,4.29,1.5,3.86,2.86,7.44,4.28,11,6.33,15.86,12.71,31.71,19,47.59,3.82,9.65,10.47,16.66,19.52,21.56a16.16,16.16,0,0,1,2.32,1.84c-.12.25-.25.49-.38.74-3.15-.24-6.29-.6-9.45-.71-15.66-.52-31.34-1.2-47,.73a7.87,7.87,0,0,1-2.34-.42,10,10,0,0,1,.54-2.34,32.8,32.8,0,0,1,2.89-5.19c4.49-6.15,4.59-12.8,2.35-19.68-4.83-14.89-9.75-29.75-14.65-44.62-.52-1.6-1.1-3.18-1.76-5.08-1.8.52-3.51.94-5.17,1.5a149.71,149.71,0,0,0-74.83,54.39,104.57,104.57,0,0,0-5.78,9.39,8.84,8.84,0,0,0-.18,9.17,15.12,15.12,0,0,1,.83,2.36Zm118.29-90.29c-8.72-22.9-17.34-45.51-26-68.13l-1.27,0q-20.44,49.9-40.87,99.83C777.61,176.64,800.94,168.08,826.24,162.19Z" transform="translate(-0.52 -0.5)"/><path class="cls-2" d="M322.66,174.88c12.83.66,25.46,1.51,38-.74a23.18,23.18,0,0,0,14.6-8.52,20.68,20.68,0,0,1,2.37-2.11V167c.06,7.74.13,15.47.15,23.21a9.4,9.4,0,0,1-.58,2.26c-.58-.21-1.34-.25-1.72-.65-7.19-7.51-16.56-9.06-26.24-9.35-8.21-.25-16.43.06-24.65.14a20.62,20.62,0,0,0-2.2.26c0,1.37,0,2.67,0,4q.66,20.81,1.35,41.6c.21,6.44,3.72,10.41,9.4,12.89a45.16,45.16,0,0,0,18.25,3.42,191.61,191.61,0,0,0,19.76-.9c6.84-.69,12.38-4.37,17.26-9,3-2.86,6-5.79,8.9-8.73,1.27-1.28,2.5-1.56,4-.16-3.62,7.94-7.19,15.91-10.89,23.83-1,2.08-3,2.32-5.08,2.31-22.49,0-45-.17-67.47,0-8.49.05-17,.76-25.46,1.08a11.5,11.5,0,0,1-3.06-.75,12.35,12.35,0,0,1,1.79-2.28c4.42-3.48,8.83-7.17,10.66-12.59a44.17,44.17,0,0,0,2.56-13.75q0-38.66-.6-77.33a134,134,0,0,0-1.8-18.3c-1.08-7-4-13-11.06-16a7.14,7.14,0,0,1-1.53-1.3l.22-.71a16.14,16.14,0,0,1,2.59-.15c24.57,2.33,49.08.34,73.6-1.07a75.31,75.31,0,0,1,10.72-.22c5.15.45,7.63,3,8.36,8,.52,3.63.84,7.3,1.15,11a5.8,5.8,0,0,1-.6,2c-.65-.26-1.52-.33-1.91-.8-8.06-9.6-18.87-12.42-30.74-12.23-8.77.14-17.53.86-26.3,1.24a2.81,2.81,0,0,0-3.07,2.91c-.26,3.1-.67,6.2-.69,9.31-.13,14.35-.16,28.71-.21,43.06C322.52,173.52,322.59,174,322.66,174.88Z" transform="translate(-0.52 -0.5)"/><path class="cls-2" d="M490.91,108.52l1.38,14.62c.34,3.57.77,7.13.94,10.71,0,1-.66,2-1,3A10.81,10.81,0,0,1,489.8,135c-9-12.63-20.91-19.6-36.76-19.11-11.22.34-20.27,7.24-22.28,17.44-1.59,8.09,2.05,14.59,7.7,19.66,5.87,5.28,12.41,9.84,18.84,14.46,8.21,5.88,16.87,11.15,24.83,17.33,9.36,7.27,15.72,16.59,16,29,.38,14.92-6.74,25.61-19.18,33-14.7,8.74-30.6,9.59-46.87,6.05a210.65,210.65,0,0,1-20.35-6,4.46,4.46,0,0,1-2.55-3.11c-.46-6.95-.6-13.93-.82-20.91a2.48,2.48,0,0,1,.26-1.37c.51-.73,1.08-1.72,1.81-1.9.47-.12,1.46.88,1.86,1.58,4.26,7.36,9.27,14,16.71,18.52,10.39,6.25,21.46,8.79,33.38,5.57,17.71-4.79,24.63-23.75,14.33-38.9-4.73-7-11.43-11.73-18.27-16.3-9.33-6.25-19-12.07-28.1-18.59-7.16-5.12-12.95-11.67-15.12-20.59-3.24-13.32,3.08-27.69,15.52-35.5,11.78-7.38,24.54-8.6,37.9-5.89,2.13.44,4.24,1,6.38,1.34C480.34,111.7,485.57,112,490.91,108.52Z" transform="translate(-0.52 -0.5)"/><path class="cls-2" d="M596.88,252.54H555.46a15.85,15.85,0,0,1,2.08-1.67c5.83-3.05,8.72-8,9-14.4.39-9.52.88-19.05.85-28.58-.09-25.86-.39-51.72-.68-77.59,0-3.39-.57-6.77-.79-10.16-.08-1.37-.52-2-2-2-12.65.3-25.31.4-37.77,3a35.11,35.11,0,0,0-15.29,7.68c-2.73,2.26-2.75,2.25-5.65.59l14.43-22.62c4.39,3.75,9.9,3.84,15.21,3.85,26.16,0,52.33,0,78.48-.32,8.57-.1,17.12-1.13,25.68-1.8a49.9,49.9,0,0,0,5-1l-1.6,3.05c-3,5.76-6,11.53-9.13,17.25a12.66,12.66,0,0,1-2.13,2.28,9.42,9.42,0,0,1-1.5-2.6c-1.21-5.75-3.24-8.58-8.43-8.75-11.67-.39-23.37-.13-35.59-.13-.33,6.26-.95,12.53-.95,18.81q0,41.21.28,82.41c0,6,.55,12.06,1.17,18.05.58,5.76,3.81,9.92,8.75,12.83A16.43,16.43,0,0,1,596.88,252.54Z" transform="translate(-0.52 -0.5)"/><path class="cls-2" d="M102.82,68.16C99.72,56.32,91,51.19,77.3,52.21,51.5,54.13,30.52,79,31.54,103.37c.18,4.13.31,8.38,1.43,12.29A22.3,22.3,0,0,0,38,124c2.34,2.6,5.65,3.93,9.28,2.54s5.26-4.53,5.44-8c.35-6.86-.38-13.52-7.19-17.56-2-1.18-1.28-2.43.26-3.08a8,8,0,0,1,4.1-.47c10.71,1.77,18,11.9,17.3,22.83C66,138,49.46,148.23,30.52,142.15c-12.28-3.94-19.67-14.58-20.41-28.78-1-19.86,6.63-36.3,20.31-50.1,9.49-9.59,20.42-17.42,33.93-20,12.6-2.4,25.31-2.36,36.75,4.83a27.18,27.18,0,0,1,7.55,7.1C112.68,60.89,109.81,66.84,102.82,68.16Z" transform="translate(-0.52 -0.5)"/><path class="cls-2" d="M653,110.32h41.57c-.42.53-.63,1.1-1,1.28-6.83,3.08-9,9-9.59,15.82-.56,7-1.15,14.12-1.14,21.18,0,25.58.26,51.16.52,76.73,0,4.14.55,8.28.95,12.41.54,5.69,3.5,9.83,8.4,12.68.91.53,1.78,1.14,3.27,2.11H654.14a14,14,0,0,1,2.07-1.91,17.66,17.66,0,0,0,8.92-15.76q.24-33.26.24-66.52c0-9.72-.19-19.45-.52-29.16a138.27,138.27,0,0,0-1.3-14.07c-.82-6-3.78-10.59-9.45-13.18a7.51,7.51,0,0,1-1.29-1Z" transform="translate(-0.52 -0.5)"/><path d="M133.89,356.58h-7.06V284.41h11.84l6.57,51,.42,0c2.14-16.94,4.29-33.89,6.45-51h11.67v72.15H157V295.06c-2.73,20.88-5.38,41.13-8,61.28-6.32,1.24-6.71,1.05-7.47-4.59-2.38-17.58-4.68-35.16-7-52.74a3,3,0,0,0-.58-1.64Z" transform="translate(-0.52 -0.5)"/><path d="M626.44,356.64h-7.36c-4-18-8.09-36-11.67-51.95v51.88h-6.67V284.23c2.21,0,4.36-.13,6.48.08a2.57,2.57,0,0,1,1.71,1.67c3.51,15.91,6.93,31.84,10.37,47.77.2.91.45,1.8.53,2.13V284.45h6.61Z" transform="translate(-0.52 -0.5)"/><path d="M409.81,284.49c5.22,0,10.13-.34,15,.09,5.54.49,8.83,4.07,9.89,9.42a47.24,47.24,0,0,1,.85,9.27c-.11,14,0,27.92-.74,41.85-.42,8-5.21,11.54-13.28,11.61-3.84,0-7.69,0-11.7,0Zm7.77,8.13v55.74c7.13.92,9.14-.58,10.12-7.38a21.34,21.34,0,0,0,.25-3.09c.06-11.61.16-23.22.1-34.83a30.55,30.55,0,0,0-1-7,4.33,4.33,0,0,0-4.58-3.47Z" transform="translate(-0.52 -0.5)"/><path d="M297.05,356.75V283.92c5.81.34,11.61.08,17.14,1.17,6,1.18,7.7,6.65,7.8,11.83.32,15.73.37,31.48,0,47.21-.23,8.79-4.94,12.63-13.74,12.62Zm7.53-63.86v55.32c6.83,1.56,9.59-.45,10.06-7.16.05-.66.13-1.32.13-2,0-12.66.06-25.31-.07-38C314.63,293.57,312.4,291.84,304.58,292.89Z" transform="translate(-0.52 -0.5)"/><path d="M580,320.8c0,6.32.14,12.65-.06,19a44.56,44.56,0,0,1-1.32,9.48c-1.31,5.13-5.46,8.11-10.85,8.32-6,.24-10.52-2.12-11.95-7.44a59,59,0,0,1-2-15c0-13.11.16-26.22.82-39.3.41-8.1,5.36-12.45,12.63-12.39,6.13,0,10.34,3.16,11.52,9.18A99.55,99.55,0,0,1,580.07,305c.18,2.63,0,5.28.06,7.92v7.93Zm-7.81.05h.17c0-6.23.07-12.46,0-18.69a43.69,43.69,0,0,0-.8-6.72,4.26,4.26,0,0,0-4.56-3.81,4.19,4.19,0,0,0-4.46,3.57,33.9,33.9,0,0,0-.94,6.7c-.1,12.27-.09,24.54,0,36.8a32.94,32.94,0,0,0,.68,6.18c.6,3.13,2.32,4.7,4.79,4.7s4.13-1.54,4.76-4.7a18.38,18.38,0,0,0,.42-3.37C572.25,334.62,572.23,327.74,572.23,320.85Z" transform="translate(-0.52 -0.5)"/><path d="M843,341.41c-3.44,0-6.65-.13-9.83.11-.66,0-1.62,1.35-1.77,2.19-.75,4.25-1.29,8.53-1.91,12.86h-7.4c.89-6,1.74-11.76,2.6-17.52,2.39-16.14,4.82-32.27,7.17-48.41.93-6.43.84-6.44,7.24-6.41h3.46c3.48,24.1,6.93,48,10.46,72.5a63.14,63.14,0,0,1-6.67-.09c-.55-.06-1.27-1.21-1.4-1.95C844.25,350.42,843.69,346.12,843,341.41Zm-5.3-45.92c-1.63,12.79-3.22,25.24-4.82,37.79h9.18C840.62,320.59,839.18,308.18,837.72,295.49Z" transform="translate(-0.52 -0.5)"/><path d="M690.17,356.67h-8.94c-3.67-24-7.34-48-11-72.25h8.14q3.63,29,7.25,57.88,3.58-28.87,7.19-57.89h7.78C697.07,308.58,693.63,332.54,690.17,356.67Z" transform="translate(-0.52 -0.5)"/><path d="M894.34,301.17h-7.48c-.23-1.77-.4-3.52-.7-5.25-.47-2.63-2-4.24-4.75-4.38S877,293,876.2,295.45a15.08,15.08,0,0,0,2.28,14c3.19,4.32,6.89,8.26,10.24,12.46,6.48,8.15,7.31,17.4,4.5,27-1.82,6.24-6.88,9-14,8.56-5.87-.4-9.82-4.06-10.94-10.39-.43-2.46-.45-5-.68-7.69h7.58c.25,2,.41,3.91.78,5.82.48,2.54,1.86,4.36,4.67,4.51a5,5,0,0,0,5.52-3.94c1.76-6.65,1.06-12.9-3.64-18.31-2.61-3-5.19-6-7.85-8.94-6.77-7.48-7.94-16.28-5.85-25.69a11.83,11.83,0,0,1,12.12-9.5c6.47.1,10.74,3.39,12.2,9.68C893.77,295.54,893.93,298.18,894.34,301.17Z" transform="translate(-0.52 -0.5)"/><path d="M277.17,284.53v8H263.32v23.26h13V324h-13v24.61h13.88v7.87H255.68v-72Z" transform="translate(-0.52 -0.5)"/><path d="M369.15,356.51V284.38h21.22v8.14H376.65v23.24h12.79v8.18H376.65v24.67h13.87v7.9Z" transform="translate(-0.52 -0.5)"/><path d="M442.18,70.19c2.27,3.49,4.58,7.39,7.26,11,1.17,1.59,3.09,2.62,4.63,4a8.15,8.15,0,0,1,1.07,1.39c-.47.34-.93,1-1.41,1-6.66.35-10.94.45-15.1-7.18a74.32,74.32,0,0,0-3.81-6.62c-.67-1-2-1.51-3.51-2.62,0,4.32-.21,7.7.14,11,.09,1,1.78,1.76,2.73,2.64l1.59,1.49c-.64.38-1.28,1.07-1.93,1.09-4.71.1-9.44.1-14.16,0-.6,0-1.19-.57-1.79-.87.49-.54.91-1.43,1.49-1.56,2.18-.48,2.93-1.89,2.93-3.89,0-7.93,0-15.85,0-23.78,0-2-.77-3.42-2.94-3.9-.54-.12-.93-.88-1.38-1.34.5-.29,1-.84,1.52-.83,6.88,0,13.81-.35,20.63.36,7.63.78,11.08,7.45,7.39,13.46C446.33,66.93,444.21,68.26,442.18,70.19Zm-2.61-9.34c0-4.16-1.93-6.41-5.59-6.89-2.11-.28-3,.52-3,2.57,0,3.49,0,7,.14,10.47A2.52,2.52,0,0,0,433,68.63C437,68.83,439.61,65.68,439.57,60.85Z" transform="translate(-0.52 -0.5)"/><path d="M227.45,292.57v64H220V292.7h-9.17v-8.31h25.88v8.18Z" transform="translate(-0.52 -0.5)"/><path d="M499.07,356.57h-7.64V292.62h-8.9v-8.26H508v8.18h-9Z" transform="translate(-0.52 -0.5)"/><path d="M58.75,284.36h7.39V348.5H79.76v8.07h-21Z" transform="translate(-0.52 -0.5)"/><path d="M755.21,348.71h13.84v7.9H747.79V284.47h7.42Z" transform="translate(-0.52 -0.5)"/><path d="M360.13,50.23c11.42.06,19.22,7.76,19.17,18.9s-8.15,19-19.77,19c-11.14,0-18.91-8-18.81-19.27C340.81,58.25,349.24,50.18,360.13,50.23Zm10.09,19a122.08,122.08,0,0,0-3.55-11.7c-1.21-3-4.05-4.44-7.35-4.32a7.25,7.25,0,0,0-6.87,5,31,31,0,0,0-1.93,8.17c-.39,5.41.1,10.75,3.65,15.29,2,2.57,4.59,4,7.86,3.47a7.7,7.7,0,0,0,6.41-6C369.22,76.24,369.51,73.24,370.22,69.19Z" transform="translate(-0.52 -0.5)"/><path d="M787.1,284.44h7.26v64.08h13.33v8H787.1Z" transform="translate(-0.52 -0.5)"/><path d="M679.06,51.81c-.57.59-1,1.52-1.73,1.69a3.93,3.93,0,0,0-3.29,4q-.35,9.61-.56,19.22c-.07,2.83.08,5.67-.06,8.49,0,.84-.64,2.27-1.15,2.35a5,5,0,0,1-3.53-.64c-1.29-1-2.11-2.63-3.17-4-5.76-7.11-11.53-14.2-17.68-21.77a21.94,21.94,0,0,0-.27,2.57c.11,5.56.23,11.12.4,16.68.06,2.32,1,3.94,3.55,4.38.65.11,1.17,1,1.75,1.59a6.27,6.27,0,0,1-2.05.91c-3.49.09-7,.09-10.48,0-.58,0-1.14-.61-1.72-.93.44-.51.81-1.37,1.31-1.46,2.86-.5,3.62-2.49,3.69-4.93.18-6.88.34-13.77.41-20.65,0-2.89-1-5.13-4.17-5.94-.61-.16-1-1-1.57-1.52.6-.29,1.2-.61,1.81-.88.16-.07.37,0,.56,0,6.45-.78,11.55.53,15.44,6.7,3.53,5.61,8.49,10.33,12.83,15.44a10.52,10.52,0,0,0,1.08.82c0-1.76,0-3.08,0-4.4-.07-3.78-.22-7.55-.24-11.32,0-2.75-1.08-4.47-4-4.9-.58-.09-1-1-1.56-1.45.6-.29,1.19-.83,1.8-.84,3.95-.07,7.91,0,11.87,0Z" transform="translate(-0.52 -0.5)"/><path d="M104.69,356.63H97.17V284.48h7.52Z" transform="translate(-0.52 -0.5)"/><path d="M526.42,284.41h7.51v72.15h-7.51Z" transform="translate(-0.52 -0.5)"/><path d="M719.45,284.33h7.28v72.14h-7.28Z" transform="translate(-0.52 -0.5)"/><path d="M741.82,75.39c-1.16-.57-2.38-.81-2.46-1.25-.69-3.9-3.52-3.87-6.47-3.76-.93,0-1.87,0-3,0,0,3.92-.13,7.66.09,11.37A3.43,3.43,0,0,0,732,84c5.14,1.56,9.73-.39,12.66-5a11.13,11.13,0,0,1,2.39-2l.84.7c-.66,2.7-1.22,5.43-2,8.07a2.58,2.58,0,0,1-1.93,1.45q-13,.19-26,.12c-.63,0-1.26-.71-1.89-1.09.59-.48,1.12-1.26,1.77-1.39a3.45,3.45,0,0,0,3.17-3.69q0-11.59,0-23.2c0-2.45-.67-4.49-3.62-4.84-.38-.05-.69-.67-1-1,.55-.34,1.1-1,1.65-1,5.57-.08,11.14-.06,16.71-.07h9.66q.19,4.31.38,8.61l-.66.65c-.75-.56-1.89-1-2.2-1.72-1.64-4-2.38-4.65-6.68-4.63-6.34,0-5.43-.75-5.46,5.32,0,2.44,0,4.88,0,7.72,2.25,0,4.36.33,6.29-.13,1.17-.27,2.05-1.78,3.07-2.71.6-.54,1.22-1,1.82-1.58.34.66.94,1.3,1,2C741.88,68,741.82,71.33,741.82,75.39Z" transform="translate(-0.52 -0.5)"/><path d="M184.91,284.4H192v72.12h-7.13Z" transform="translate(-0.52 -0.5)"/><path d="M463.68,356.58h-7.17V284.44h7.17Z" transform="translate(-0.52 -0.5)"/><path d="M571.19,51c2.36,0,4.73-.08,7.08,0,.65,0,1.26.71,1.89,1.08-.46.48-.88,1.31-1.39,1.38-2.47.32-3.06,2-3.07,4,0,5.57-.16,11.15.12,16.71.3,6.09,3.41,9.35,8.42,9.47,4.7.11,8.36-2.64,8.67-7.48.42-6.38.16-12.8.08-19.2,0-2-1.4-2.9-3.19-3.48-.72-.23-1.26-1-1.88-1.5a6,6,0,0,1,2-.92c3.4-.1,6.8-.09,10.2,0a2.31,2.31,0,0,1,1.51.82c.14.17-.31,1.23-.61,1.29-4.75.88-4.17,4.77-4.4,8-.35,5-.1,10-.64,15-1.06,9.77-9.16,13.17-17.58,11.74-7.76-1.32-11.34-5.8-11.43-13.76-.06-5.29,0-10.58,0-15.86,0-2.43-.39-4.56-3.43-5-.42,0-.75-.82-1.13-1.26.47-.33.93-.93,1.4-1,2.46-.1,4.92,0,7.37,0Z" transform="translate(-0.52 -0.5)"/><path d="M287,67c2.48,0,4.78.3,6.93-.13,1-.21,1.74-1.83,2.63-2.79.44-.48.94-.91,1.42-1.37.39.5,1.1,1,1.12,1.5.09,3.57.05,7.15.05,11.61-1.21-.76-2.39-1.1-2.5-1.65-.61-3-2.62-3.63-5.24-3.52-1.31,0-2.63,0-4.56,0,.18,4.12.16,8,.66,11.91.11.85,2.07,1.45,3.14,2.21.65.46,1.23,1,1.85,1.52-.73.37-1.44,1-2.18,1.06q-7.21.14-14.45,0c-.73,0-1.45-.69-2.18-1,.58-.48,1.11-1.26,1.75-1.36a3.23,3.23,0,0,0,2.94-3.56c0-8.21-.07-16.42-.09-24.63,0-2-1.16-2.79-2.87-3.32-.63-.2-1.1-1-1.64-1.46.61-.3,1.21-.85,1.82-.86,8.5-.05,17,0,25.82,0,.13,2.6.3,5.29.34,8,0,.39-.62,1.15-.86,1.12-.64-.09-1.67-.41-1.78-.84-1.41-5.63-5.78-5.49-10.14-5.19-.69,0-1.86,1-1.89,1.65C286.87,59.44,287,63.1,287,67Z" transform="translate(-0.52 -0.5)"/><path d="M503.26,54.33c-5.81-.58-7.14.19-9.35,4.74-.34.71-1.44,1.06-2.2,1.57a6.38,6.38,0,0,1-.66-2.13c.19-2.72.55-5.42.85-8.13,0-.08.11-.15.13-.18,10.37,1.57,20.69,1.17,31.41.16.16,3,.35,6.39.59,10.8-1.35-.88-2.47-1.21-2.78-1.9-2.32-5.15-2.85-5.5-9.15-4.94-.06.85-.17,1.74-.17,2.64,0,7.46,0,14.92,0,22.38,0,2.89.37,5.31,4.07,5.55.52,0,1,1.17,1.46,1.79l-.55.66c-5.74,0-11.49,0-17.23,0-.47,0-.92-.66-1.38-1,.43-.49.8-1.35,1.29-1.42,2.15-.32,3.64-1.28,3.66-3.56C503.29,72.35,503.26,63.4,503.26,54.33Z" transform="translate(-0.52 -0.5)"/></svg>